<svg width="479" height="84" viewBox="0 0 479 84" fill="none" xmlns="http://www.w3.org/2000/svg">
<path d="M22.952 74.576C28.328 74.576 32.424 73.552 35.24 71.504C38.056 69.456 39.464 66.384 39.464 62.288C39.464 59.8133 38.952 57.7227 37.928 56.016C36.904 54.224 35.5387 52.688 33.832 51.408C32.1253 50.0427 30.2053 48.8907 28.072 47.952C25.9387 46.928 23.7627 45.9893 21.544 45.136C18.984 44.112 16.5093 42.96 14.12 41.68C11.816 40.4 9.72534 38.9067 7.848 37.2C6.056 35.4933 4.60533 33.488 3.496 31.184C2.472 28.88 1.96 26.1493 1.96 22.992C1.96 16.08 4.136 10.704 8.488 6.864C12.84 2.93866 18.8987 0.975998 26.664 0.975998C28.7973 0.975998 30.888 1.14666 32.936 1.488C35.0693 1.744 37.032 2.08533 38.824 2.51199C40.616 2.93866 42.1947 3.45066 43.56 4.048C45.0107 4.64533 46.1627 5.24266 47.016 5.84L43.688 14.672C41.9813 13.648 39.6347 12.624 36.648 11.6C33.6613 10.576 30.3333 10.064 26.664 10.064C22.824 10.064 19.496 11.0453 16.68 13.008C13.864 14.8853 12.456 17.744 12.456 21.584C12.456 23.8027 12.84 25.68 13.608 27.216C14.4613 28.752 15.5707 30.1173 16.936 31.312C18.3867 32.4213 20.0507 33.4453 21.928 34.384C23.8053 35.3227 25.8533 36.2613 28.072 37.2C31.3147 38.5653 34.2587 39.9307 36.904 41.296C39.6347 42.6613 41.9387 44.2827 43.816 46.16C45.7787 48.0373 47.272 50.256 48.296 52.816C49.4053 55.376 49.96 58.4907 49.96 62.16C49.96 69.072 47.6133 74.4053 42.92 78.16C38.312 81.8293 31.656 83.664 22.952 83.664C20.136 83.664 17.4907 83.4507 15.016 83.024C12.5413 82.6827 10.3227 82.2133 8.36 81.616C6.48267 81.0187 4.81867 80.4213 3.368 79.824C1.91733 79.2267 0.808001 78.672 0.0400009 78.16L3.24 69.456C4.94667 70.3947 7.464 71.504 10.792 72.784C14.12 73.9787 18.1733 74.576 22.952 74.576Z" fill="#639CD9"/>
<path d="M104.744 2.768H115.24V82H104.744V45.136H73.256V82H62.76V2.768H73.256V36.176H104.744V2.768Z" fill="#639CD9"/>
<path d="M172.712 82L167.976 61.264H137.512L132.904 82H122.152C123.603 76.368 125.224 70.2667 127.016 63.696C128.808 57.1253 130.728 50.384 132.776 43.472C134.909 36.56 137.128 29.648 139.432 22.736C141.736 15.7387 144.168 9.08266 146.728 2.768H159.784C162.259 9.08266 164.605 15.7387 166.824 22.736C169.128 29.648 171.261 36.56 173.224 43.472C175.272 50.384 177.192 57.1253 178.984 63.696C180.776 70.2667 182.397 76.368 183.848 82H172.712ZM152.872 11.984C150.909 17.36 148.776 23.5893 146.472 30.672C144.168 37.7547 141.992 45.0507 139.944 52.56H165.544C163.581 44.88 161.448 37.4987 159.144 30.416C156.925 23.248 154.835 17.104 152.872 11.984Z" fill="#639CD9"/>
<path d="M231.208 82C228.307 74.9173 225.576 68.5173 223.016 62.8C220.456 56.9973 217.981 51.5787 215.592 46.544C213.288 41.5093 210.984 36.7733 208.68 32.336C206.376 27.8133 204.029 23.2907 201.64 18.768V82H192.04V2.768H202.792C206.291 9.168 209.32 14.7573 211.88 19.536C214.525 24.3147 216.915 28.9653 219.048 33.488C221.267 37.9253 223.4 42.5333 225.448 47.312C227.496 52.0053 229.8 57.4667 232.36 63.696V2.768H241.96V82H231.208Z" fill="#639CD9"/>
<path d="M284.16 2.768C279.979 8.99733 275.371 15.184 270.336 21.328C265.387 27.472 260.011 33.616 254.208 39.76C256.939 42.064 259.84 44.752 262.912 47.824C265.984 50.896 268.971 54.2667 271.872 57.936C274.859 61.52 277.632 65.36 280.192 69.456C282.837 73.552 285.056 77.7333 286.848 82H274.944C272.811 78.0747 270.507 74.2347 268.032 70.48C265.557 66.7253 262.912 63.2267 260.096 59.984C257.365 56.7413 254.507 53.7973 251.52 51.152C248.619 48.4213 245.675 46.0747 242.688 44.112V82H232.192V2.768H242.688V38.096C248.235 32.3787 253.525 26.4053 258.56 20.176C263.68 13.9467 268.16 8.14399 272 2.768H284.16Z" fill="#639CD9"/>
<path d="M339.712 82L334.976 61.264H304.512L299.904 82H289.152C290.603 76.368 292.224 70.2667 294.016 63.696C295.808 57.1253 297.728 50.384 299.776 43.472C301.909 36.56 304.128 29.648 306.432 22.736C308.736 15.7387 311.168 9.08266 313.728 2.768H326.784C329.259 9.08266 331.605 15.7387 333.824 22.736C336.128 29.648 338.261 36.56 340.224 43.472C342.272 50.384 344.192 57.1253 345.984 63.696C347.776 70.2667 349.397 76.368 350.848 82H339.712ZM319.872 11.984C317.909 17.36 315.776 23.5893 313.472 30.672C311.168 37.7547 308.992 45.0507 306.944 52.56H332.544C330.581 44.88 328.448 37.4987 326.144 30.416C323.925 23.248 321.835 17.104 319.872 11.984Z" fill="#639CD9"/>
<path d="M407.168 26.96C407.168 31.824 405.888 36.1333 403.328 39.888C400.768 43.5573 397.312 46.416 392.96 48.464C394.24 50.512 395.648 52.8587 397.184 55.504C398.805 58.064 400.427 60.8373 402.048 63.824C403.669 66.7253 405.248 69.7547 406.784 72.912C408.405 75.984 409.899 79.0133 411.264 82H400C397.44 75.856 394.624 69.968 391.552 64.336C388.565 58.704 385.664 54.1387 382.848 50.64C382.336 50.7253 381.568 50.768 380.544 50.768C379.605 50.768 378.965 50.768 378.624 50.768H369.664V82H359.04V3.92C360.32 3.57866 361.771 3.28 363.392 3.02399C365.099 2.768 366.805 2.59733 368.512 2.51199C370.304 2.34133 372.053 2.21333 373.76 2.128C375.467 2.04267 377.003 2 378.368 2C387.925 2 395.093 4.09067 399.872 8.272C404.736 12.4533 407.168 18.6827 407.168 26.96ZM379.264 11.088C377.301 11.088 375.381 11.1307 373.504 11.216C371.712 11.216 370.432 11.3013 369.664 11.472V42.064H376.448C379.52 42.064 382.251 41.8507 384.64 41.424C387.115 40.9973 389.205 40.2293 390.912 39.12C392.704 37.9253 394.069 36.3467 395.008 34.384C395.947 32.336 396.416 29.6907 396.416 26.448C396.416 23.376 395.947 20.8587 395.008 18.896C394.069 16.9333 392.832 15.3973 391.296 14.288C389.76 13.0933 387.925 12.2827 385.792 11.856C383.744 11.344 381.568 11.088 379.264 11.088Z" fill="#639CD9"/>
<path d="M467.712 82L462.976 61.264H432.512L427.904 82H417.152C418.603 76.368 420.224 70.2667 422.016 63.696C423.808 57.1253 425.728 50.384 427.776 43.472C429.909 36.56 432.128 29.648 434.432 22.736C436.736 15.7387 439.168 9.08266 441.728 2.768H454.784C457.259 9.08266 459.605 15.7387 461.824 22.736C464.128 29.648 466.261 36.56 468.224 43.472C470.272 50.384 472.192 57.1253 473.984 63.696C475.776 70.2667 477.397 76.368 478.848 82H467.712ZM447.872 11.984C445.909 17.36 443.776 23.5893 441.472 30.672C439.168 37.7547 436.992 45.0507 434.944 52.56H460.544C458.581 44.88 456.448 37.4987 454.144 30.416C451.925 23.248 449.835 17.104 447.872 11.984Z" fill="#639CD9"/>
</svg>
